<?xml version="1.0" standalone="no"?>
<!DOCTYPE svg PUBLIC "-//W3C//DTD SVG 20010904//EN"
 "http://www.w3.org/TR/2001/REC-SVG-20010904/DTD/svg10.dtd">
<svg version="1.0" xmlns="http://www.w3.org/2000/svg"
 width="620.000000pt" height="620.000000pt" viewBox="0 0 620.000000 620.000000"
 preserveAspectRatio="xMidYMid meet">
<metadata>
Created by potrace 1.11, written by Peter Selinger 2001-2013
</metadata>
<g transform="translate(0.000000,620.000000) scale(0.100000,-0.100000)"
fill="#000000" stroke="none">
<path d="M610 6189 c-19 -5 -46 -11 -60 -13 -14 -3 -63 -24 -110 -48 -162 -82
-288 -245 -325 -423 -13 -60 -15 -405 -15 -2505 0 -2707 -5 -2505 70 -2656 74
-150 206 -261 380 -320 53 -18 146 -19 2525 -21 2756 -3 2528 -9 2685 69 163
82 287 244 325 423 13 60 15 404 14 2515 0 2371 -1 2447 -19 2518 -58 221
-225 389 -450 451 -74 21 -79 21 -2530 20 -1359 -1 -2471 -5 -2490 -10z m611
-251 c1 -7 2 -862 3 -1900 0 -1037 4 -1890 8 -1894 4 -4 130 -7 280 -8 l273
-1 1 -843 2 -843 -577 3 -576 3 -65 31 c-82 39 -144 101 -184 184 l-31 65 0
2465 0 2465 31 65 c50 105 145 184 251 209 21 5 161 9 311 10 211 1 272 -2
273 -11z m1129 -1768 l0 -1780 -90 0 c-49 -1 -227 -1 -395 -1 -168 0 -324 0
-348 1 l-42 0 1 1778 c1 977 2 1778 3 1780 0 1 197 2 436 2 l435 0 0 -1780z
m1250 -125 l0 -1905 28 -1 c15 0 141 -1 280 -1 177 -1 252 -4 253 -12 0 -6 1
-384 1 -841 l1 -830 -1062 -3 -1061 -2 -1 32 c-4 183 0 1638 5 1646 4 6 102
10 278 9 l273 -1 3 1907 2 1907 500 0 500 0 0 -1905z m1125 127 c0 -976 -3
-1776 -8 -1779 -5 -3 -613 -6 -829 -3 l-38 0 0 1780 0 1780 437 -2 438 -3 0
-1773z m905 1742 c83 -40 145 -102 184 -184 l31 -65 0 -2465 0 -2465 -31 -65
c-39 -82 -98 -141 -182 -182 l-67 -33 -576 -3 -577 -3 0 845 1 844 271 -1
c150 0 276 2 282 5 6 4 9 713 8 1900 0 1041 2 1897 4 1901 2 5 135 7 296 5
l291 -3 65 -31z"/>
</g>
</svg>
