<svg version="1.0" xmlns="http://www.w3.org/2000/svg"
 width="418.000000pt" height="84.000000pt" viewBox="0 0 418.000000 84.000000"
 preserveAspectRatio="xMidYMid meet">

<g transform="translate(0.000000,84.000000) scale(0.100000,-0.100000)"
fill="#000000" stroke="none">
<path d="M124 675 c-10 -26 5 -65 25 -65 38 0 51 11 51 46 0 32 -2 34 -35 34
-23 0 -38 -6 -41 -15z"/>
<path d="M1550 655 c0 -40 15 -51 55 -41 21 5 25 12 25 41 0 34 -1 35 -40 35
-39 0 -40 -1 -40 -35z"/>
<path d="M3255 678 c-3 -8 -4 -106 -3 -218 l3 -205 40 0 40 0 5 105 c5 100 6
105 31 119 24 13 29 13 52 -2 25 -16 26 -22 29 -120 l3 -102 38 -3 37 -3 0
121 0 122 -34 34 c-38 38 -87 46 -122 19 -10 -8 -22 -15 -26 -15 -4 0 -8 35
-10 78 l-3 77 -38 3 c-24 2 -39 -1 -42 -10z"/>
<path d="M2127 653 c-4 -3 -7 -25 -7 -49 0 -33 -4 -43 -20 -47 -25 -7 -26 -37
-1 -44 17 -4 20 -16 23 -109 4 -124 17 -147 90 -148 41 -1 43 0 43 29 0 23 -5
31 -21 33 -26 4 -34 27 -34 107 0 67 6 81 35 86 30 6 26 42 -5 49 -22 5 -25
12 -28 53 -3 46 -4 47 -36 47 -18 0 -36 -3 -39 -7z"/>
<path d="M127 553 c-4 -3 -7 -74 -7 -157 0 -83 -4 -156 -8 -162 -4 -6 -15 -13
-24 -17 -11 -4 -18 -17 -18 -32 0 -23 4 -25 45 -25 32 0 51 6 65 20 19 19 20
33 20 200 l0 180 -33 0 c-19 0 -37 -3 -40 -7z"/>
<path d="M320 549 c-38 -15 -60 -40 -60 -66 0 -19 5 -23 28 -23 16 0 37 9 47
20 31 34 101 22 93 -16 -3 -18 -27 -27 -99 -39 -58 -9 -89 -39 -89 -85 0 -30
6 -43 26 -59 37 -29 84 -36 129 -17 34 15 39 15 49 0 8 -10 23 -14 41 -12 l30
3 0 105 c0 129 -7 155 -48 180 -35 22 -105 26 -147 9z m117 -165 c16 -41 -46
-85 -97 -69 -35 11 -23 56 20 71 48 17 70 17 77 -2z"/>
<path d="M634 546 c-17 -8 -43 -29 -58 -48 -34 -45 -36 -126 -6 -176 21 -34
87 -71 127 -72 63 0 154 68 139 105 -9 24 -56 18 -82 -10 -49 -53 -124 -16
-124 61 0 73 75 113 117 64 12 -13 30 -20 55 -20 l38 0 -13 33 c-26 63 -121
94 -193 63z"/>
<path d="M942 540 c-97 -59 -88 -223 15 -273 45 -22 45 -22 116 8 15 6 17 0
17 -54 l0 -61 45 0 45 0 -2 198 -3 197 -37 3 c-29 2 -38 0 -38 -12 0 -19 -8
-20 -40 -1 -35 20 -80 18 -118 -5z m135 -76 c27 -41 22 -92 -11 -120 -34 -30
-51 -30 -81 1 -29 29 -34 88 -9 123 23 33 78 30 101 -4z"/>
<path d="M1224 545 c-4 -8 -5 -62 -2 -118 4 -122 17 -150 79 -169 37 -11 46
-10 80 9 37 20 37 20 42 1 4 -15 13 -19 39 -16 l33 3 3 153 3 152 -41 0 -40 0
0 -95 c0 -88 -2 -98 -25 -120 -28 -29 -43 -31 -71 -11 -16 12 -19 29 -22 120
l-4 106 -34 0 c-22 0 -37 -6 -40 -15z"/>
<path d="M1552 408 l3 -153 35 0 35 0 3 153 3 152 -41 0 -41 0 3 -152z"/>
<path d="M1744 541 c-55 -33 -74 -67 -74 -131 0 -74 28 -117 93 -144 42 -18
53 -19 95 -7 48 12 102 54 102 78 0 19 -74 17 -90 -2 -18 -21 -83 -19 -103 3
-33 36 -21 41 91 44 l107 3 -3 40 c-4 53 -27 89 -72 114 -47 26 -105 27 -146
2z m106 -56 c53 -27 39 -45 -35 -45 -36 0 -65 3 -65 8 0 12 14 28 35 40 26 15
31 15 65 -3z"/>
<path d="M2365 543 c-39 -21 -62 -50 -76 -95 -36 -113 72 -220 191 -188 44 12
105 64 94 81 -9 15 -71 10 -84 -6 -18 -21 -83 -19 -103 3 -33 36 -21 41 91 44
l107 3 -3 35 c-10 107 -125 173 -217 123z m109 -64 c14 -11 24 -25 21 -30 -4
-5 -33 -9 -66 -9 -52 0 -60 2 -57 17 3 17 42 43 64 43 6 0 23 -9 38 -21z"/>
<path d="M2672 540 c-31 -19 -55 -57 -45 -72 9 -16 60 -7 78 12 29 32 95 24
95 -10 0 -19 -31 -33 -101 -44 -58 -10 -89 -40 -89 -86 0 -30 6 -43 26 -59 37
-29 84 -36 129 -17 34 15 39 15 49 0 8 -10 23 -14 41 -12 l29 3 -3 114 c-1 63
-7 125 -12 138 -19 51 -136 70 -197 33z m132 -149 c11 -17 -13 -61 -38 -72
-14 -7 -36 -9 -51 -5 -21 5 -26 12 -23 33 2 20 12 29 38 39 43 15 67 17 74 5z"/>
<path d="M2990 538 c-53 -37 -71 -68 -72 -125 0 -64 17 -101 61 -130 48 -33
94 -38 146 -18 48 18 91 66 81 90 -9 24 -60 18 -86 -10 -51 -54 -120 -19 -120
60 0 53 25 85 68 85 16 0 37 -9 47 -20 23 -25 85 -28 85 -4 0 29 -20 54 -60
74 -52 27 -109 26 -150 -2z"/>
<path d="M3644 541 c-159 -97 -65 -324 116 -281 47 11 100 54 100 81 0 15 -76
10 -90 -6 -18 -21 -83 -19 -103 3 -33 36 -21 41 91 44 l107 3 -3 35 c-10 109
-130 175 -218 121z m99 -52 c56 -30 42 -49 -34 -49 -67 0 -80 18 -31 44 33 19
38 19 65 5z"/>
<path d="M3939 537 c-69 -47 -61 -118 16 -143 22 -7 59 -18 83 -24 46 -12 55
-32 21 -50 -26 -14 -67 -5 -96 22 -29 27 -68 21 -68 -12 0 -50 100 -90 174
-70 59 16 83 39 84 83 1 51 -24 74 -108 95 -58 14 -70 21 -70 37 0 30 68 34
92 6 16 -20 62 -28 76 -15 3 4 -1 20 -9 36 -30 58 -134 76 -195 35z"/>
</g>
</svg>