<?xml version="1.0" encoding="UTF-8"?>
<svg version="1.1" xmlns="http://www.w3.org/2000/svg" width="512" height="512">
<path d="M0 0 C0.96838806 0.00215515 1.93677612 0.0043103 2.93450928 0.00653076 C17.25143438 0.05761097 31.24098845 0.44399783 45.3125 3.3125 C46.33859375 3.51649414 47.3646875 3.72048828 48.421875 3.93066406 C82.52049043 10.8695707 117.0548178 23.5517539 145.3125 44.3125 C145.91046387 44.74498047 146.50842773 45.17746094 147.12451172 45.62304688 C167.14460009 60.12704133 186.3505062 76.4993478 201.3125 96.3125 C201.81813477 96.96347656 202.32376953 97.61445312 202.84472656 98.28515625 C212.20651655 110.35026427 220.09540574 122.8639541 227.3125 136.3125 C227.68568359 136.993125 228.05886719 137.67375 228.44335938 138.375 C245.71047569 169.99358447 256.32721684 207.87596085 256.515625 244.0078125 C256.52263931 244.90976852 256.52965363 245.81172455 256.53688049 246.74101257 C256.55430732 249.63989297 256.56073387 252.53856913 256.5625 255.4375 C256.56351212 256.92230362 256.56351212 256.92230362 256.56454468 258.43710327 C256.54880838 272.9469987 256.0994755 287.03443979 253.3125 301.3125 C253.15152832 302.20952637 252.99055664 303.10655273 252.82470703 304.03076172 C242.00212011 363.84088904 207.94435543 421.35495829 159.3125 458.3125 C158.77222168 458.72918945 158.23194336 459.14587891 157.67529297 459.57519531 C147.6802884 467.2584873 137.22040964 474.00092968 126.3125 480.3125 C125.63525879 480.70679199 124.95801758 481.10108398 124.26025391 481.50732422 C101.3416244 494.68961173 75.76677437 503.29510918 49.9375 508.625 C49.22682373 508.77243652 48.51614746 508.91987305 47.78393555 509.07177734 C32.14141634 512.05713787 16.50580394 512.6873098 0.625 512.625 C-0.34239105 512.62317719 -1.3097821 512.62135437 -2.30648804 512.61947632 C-16.63940977 512.57404826 -30.58523917 512.06516072 -44.6875 509.3125 C-45.58452637 509.15152832 -46.48155273 508.99055664 -47.40576172 508.82470703 C-107.21588904 498.00212011 -164.72995829 463.94435543 -201.6875 415.3125 C-202.10418945 414.77222168 -202.52087891 414.23194336 -202.95019531 413.67529297 C-210.6334873 403.6802884 -217.37592968 393.22040964 -223.6875 382.3125 C-224.08179199 381.63525879 -224.47608398 380.95801758 -224.88232422 380.26025391 C-238.06461173 357.3416244 -246.67010918 331.76677437 -252 305.9375 C-252.14743652 305.22682373 -252.29487305 304.51614746 -252.44677734 303.78393555 C-255.43213787 288.14141634 -256.0623098 272.50580394 -256 256.625 C-255.99817719 255.65760895 -255.99635437 254.6902179 -255.99447632 253.69351196 C-255.94904826 239.36059023 -255.44016072 225.41476083 -252.6875 211.3125 C-252.44604248 209.96696045 -252.44604248 209.96696045 -252.19970703 208.59423828 C-241.37712011 148.78411096 -207.31935543 91.27004171 -158.6875 54.3125 C-158.14722168 53.89581055 -157.60694336 53.47912109 -157.05029297 53.04980469 C-147.0552884 45.3665127 -136.59540964 38.62407032 -125.6875 32.3125 C-125.01025879 31.91820801 -124.33301758 31.52391602 -123.63525391 31.11767578 C-100.7166244 17.93538827 -75.14177437 9.32989082 -49.3125 4 C-48.60182373 3.85256348 -47.89114746 3.70512695 -47.15893555 3.55322266 C-31.51685465 0.56794578 -15.88048677 -0.0638264 0 0 Z M-132.6875 64.3125 C-133.38375488 64.79541504 -134.08000977 65.27833008 -134.79736328 65.77587891 C-145.24091832 73.1130704 -154.559742 81.41339589 -163.6875 90.3125 C-164.70957894 91.29432963 -165.73171121 92.27610374 -166.75390625 93.2578125 C-172.88797169 99.2468444 -178.49035217 105.49682887 -183.6875 112.3125 C-184.18008301 112.95574219 -184.67266602 113.59898438 -185.18017578 114.26171875 C-192.91095121 124.44084745 -199.6695518 134.85197504 -205.57617188 146.18798828 C-206.61740623 148.17850263 -207.68772671 150.15027112 -208.765625 152.12109375 C-223.67423583 179.95752727 -232.70636129 213.46372767 -232.890625 245.1328125 C-232.89763931 245.94589371 -232.90465363 246.75897491 -232.91188049 247.59669495 C-232.92929772 250.21035361 -232.93573408 252.82378541 -232.9375 255.4375 C-232.93817474 256.3319986 -232.93884949 257.22649719 -232.93954468 258.14810181 C-232.92287765 272.06289335 -232.41106142 285.62560745 -229.6875 299.3125 C-229.51589355 300.18245605 -229.34428711 301.05241211 -229.16748047 301.94873047 C-219.12052644 351.08812224 -192.89936824 400.18262318 -153.6875 432.3125 C-152.42292969 433.40884766 -152.42292969 433.40884766 -151.1328125 434.52734375 C-137.43114446 446.27958748 -122.71625609 456.03137757 -106.6875 464.3125 C-105.95901855 464.6950293 -105.23053711 465.07755859 -104.47998047 465.47167969 C-83.55085407 476.3561245 -60.85553137 483.16556634 -37.6875 487.3125 C-36.99833496 487.43705566 -36.30916992 487.56161133 -35.59912109 487.68994141 C21.22392621 497.54744768 84.25441201 482.57606644 131.33886719 449.70556641 C131.99016602 449.24585449 132.64146484 448.78614258 133.3125 448.3125 C133.9818457 447.84376465 134.65119141 447.3750293 135.34082031 446.89208984 C145.14045317 439.96767208 154.03252783 432.31903188 162.62548828 423.95263672 C164.17480568 422.44636838 165.73908294 420.9578131 167.30859375 419.47265625 C174.40115328 412.62154555 180.43585801 405.20098472 186.3125 397.3125 C186.74449707 396.7359668 187.17649414 396.15943359 187.62158203 395.56542969 C217.65235363 355.25887683 233.84717979 306.92686534 233.625 256.6875 C233.62284485 255.80754364 233.6206897 254.92758728 233.61846924 254.02096558 C233.56574348 240.5830587 233.08064589 227.50436817 230.3125 214.3125 C230.10850586 213.32330566 229.90451172 212.33411133 229.69433594 211.31494141 C222.27536126 176.25569646 208.47975084 143.63534377 186.3125 115.3125 C185.28382813 113.96671875 185.28382813 113.96671875 184.234375 112.59375 C178.96763315 105.82834176 173.20796272 99.52791748 167.3125 93.3125 C166.6006958 92.55767334 166.6006958 92.55767334 165.87451172 91.78759766 C158.28394583 83.79062397 150.1527806 76.88841947 141.3125 70.3125 C140.46582764 69.67465576 140.46582764 69.67465576 139.60205078 69.02392578 C62.08982989 10.8394275 -47.65109817 7.45058692 -132.6875 64.3125 Z " fill="#000000" transform="translate(255.6875,-0.3125)"/>
<path d="M0 0 C7.59 0 15.18 0 23 0 C23.06956492 20.91490693 23.1230442 41.82978581 23.15543652 62.74478531 C23.17087925 72.45685016 23.19191899 82.16884163 23.22631836 91.88085938 C23.25630033 100.34977322 23.27559384 108.81863388 23.28226548 117.28759933 C23.28616288 121.76829982 23.29526779 126.24884825 23.31719017 130.72949982 C23.33769459 134.95494731 23.34380588 139.18018145 23.33932304 143.40567398 C23.34014205 144.94870034 23.34602406 146.49173453 23.35761642 148.03471756 C23.47374966 164.30330957 20.72943256 178.00398942 9 190 C-5.38186337 202.05697569 -17.92283961 202.55451412 -36 202 C-36 194.41 -36 186.82 -36 179 C-27.5 178.75 -27.5 178.75 -24.87304688 178.70214844 C-17.82319511 178.39855101 -12.74877387 176.18652467 -7.25 171.8125 C-0.4915349 163.36441862 -0.41581988 154.69886627 -0.45410156 144.29077148 C-0.44535512 142.71309902 -0.43486562 141.13543541 -0.42277527 139.55778503 C-0.3950255 135.29805202 -0.39150813 131.03861003 -0.39249516 126.77879977 C-0.38935653 122.3184558 -0.36371862 117.85824107 -0.34051514 113.39796448 C-0.30002414 104.96218246 -0.27963068 96.52647762 -0.26654124 88.09061342 C-0.25064778 78.48229598 -0.21222229 68.87410943 -0.17194796 59.26586807 C-0.08964348 39.51061887 -0.03629154 19.7553827 0 0 Z " fill="#000000" transform="translate(262,155)"/>
</svg>
