<?xml version="1.0" encoding="UTF-8"?>
<svg version="1.1" xmlns="http://www.w3.org/2000/svg" width="512" height="512">
<path d="M0 0 C1.41465042 0.00323273 1.41465042 0.00323273 2.85787964 0.00653076 C17.37702275 0.05965201 31.58284328 0.54093123 45.875 3.3125 C47.39988037 3.60253906 47.39988037 3.60253906 48.95556641 3.8984375 C82.17503549 10.42647873 114.91313789 22.98685873 142.875 42.3125 C143.46732422 42.71388184 144.05964844 43.11526367 144.66992188 43.52880859 C153.55853293 49.56856718 161.80496067 56.22543592 169.875 63.3125 C170.73738281 64.06273437 171.59976562 64.81296875 172.48828125 65.5859375 C182.85588018 74.74646351 192.35394984 84.40010717 200.875 95.3125 C201.65230469 96.27285156 202.42960937 97.23320313 203.23046875 98.22265625 C229.29082611 130.99490215 246.03214364 170.34107551 253.875 211.3125 C254.12491699 212.60994141 254.12491699 212.60994141 254.37988281 213.93359375 C259.43665828 241.7825021 259.26169001 273.53921843 253.875 301.3125 C253.71402832 302.21097656 253.55305664 303.10945313 253.38720703 304.03515625 C242.56308428 363.8433734 208.5055061 421.3559837 159.875 458.3125 C159.33472168 458.72918945 158.79444336 459.14587891 158.23779297 459.57519531 C148.2427884 467.2584873 137.78290964 474.00092968 126.875 480.3125 C126.19775879 480.70679199 125.52051758 481.10108398 124.82275391 481.50732422 C101.9041244 494.68961173 76.32927437 503.29510918 50.5 508.625 C49.78932373 508.77243652 49.07864746 508.91987305 48.34643555 509.07177734 C32.70391634 512.05713787 17.06830394 512.6873098 1.1875 512.625 C0.22010895 512.62317719 -0.7472821 512.62135437 -1.74398804 512.61947632 C-16.07690977 512.57404826 -30.02273917 512.06516072 -44.125 509.3125 C-45.02202637 509.15152832 -45.91905273 508.99055664 -46.84326172 508.82470703 C-106.65338904 498.00212011 -164.16745829 463.94435543 -201.125 415.3125 C-201.54168945 414.77222168 -201.95837891 414.23194336 -202.38769531 413.67529297 C-210.0709873 403.6802884 -216.81342968 393.22040964 -223.125 382.3125 C-223.51929199 381.63525879 -223.91358398 380.95801758 -224.31982422 380.26025391 C-237.50211173 357.3416244 -246.10760918 331.76677437 -251.4375 305.9375 C-251.58493652 305.22682373 -251.73237305 304.51614746 -251.88427734 303.78393555 C-254.86963787 288.14141634 -255.4998098 272.50580394 -255.4375 256.625 C-255.43567719 255.65760895 -255.43385437 254.6902179 -255.43197632 253.69351196 C-255.38654826 239.36059023 -254.87766072 225.41476083 -252.125 211.3125 C-251.88354248 209.96696045 -251.88354248 209.96696045 -251.63720703 208.59423828 C-240.81462011 148.78411096 -206.75685543 91.27004171 -158.125 54.3125 C-157.58472168 53.89581055 -157.04444336 53.47912109 -156.48779297 53.04980469 C-146.4927884 45.3665127 -136.03290964 38.62407032 -125.125 32.3125 C-124.44775879 31.91820801 -123.77051758 31.52391602 -123.07275391 31.11767578 C-100.1541244 17.93538827 -74.57927437 9.32989082 -48.75 4 C-48.03932373 3.85256348 -47.32864746 3.70512695 -46.59643555 3.55322266 C-31.14438154 0.60421224 -15.68841634 -0.06483175 0 0 Z M7.875 154.3125 C7.87357498 156.30731415 7.87214996 158.3021283 7.87068176 160.35739136 C7.85487655 179.16162178 7.81152017 197.96564524 7.74290943 216.76975822 C7.70829624 226.4370258 7.68290873 236.10415132 7.67944336 245.77148438 C7.67639836 254.20020967 7.65583589 262.62868174 7.61447543 271.05730927 C7.59319232 275.51786094 7.58052061 279.97805302 7.58884621 284.43865585 C7.59641619 288.64298743 7.58044494 292.84659221 7.54693985 297.05079079 C7.53874189 298.58817339 7.53891476 300.12562874 7.54840279 301.66300392 C7.60238679 311.3772029 6.97646657 319.79512581 0.0904665 327.24252129 C-5.7797406 332.8180125 -12.21038142 333.61952563 -20 333.9375 C-22.68125 334.06125 -25.3625 334.185 -28.125 334.3125 C-28.125 341.5725 -28.125 348.8325 -28.125 356.3125 C-10.76227406 356.3125 2.50364748 353.85187194 15.875 342.3125 C25.21972972 332.32931049 28.95864711 319.91055794 29.03321838 306.4344635 C29.03815636 305.7791977 29.04309434 305.1239319 29.04818195 304.44880956 C29.06342782 302.27324843 29.07188214 300.09771649 29.08032227 297.92211914 C29.08991097 296.35460152 29.09992163 294.78708643 29.11032104 293.21957397 C29.13726867 288.97840448 29.1583329 284.73722397 29.17832303 280.49601674 C29.20024542 276.05839503 29.22760342 271.62080688 29.25437927 267.18321228 C29.30422183 258.78633795 29.34919184 250.3894449 29.39240164 241.9925341 C29.44184627 232.43025827 29.49673753 222.86801612 29.55208123 213.3057729 C29.6657717 193.64137982 29.77244554 173.97695404 29.875 154.3125 C22.615 154.3125 15.355 154.3125 7.875 154.3125 Z " fill="#000000" transform="translate(255.125,-0.3125)"/>
</svg>
